<svg xmlns="http://www.w3.org/2000/svg" width="199.118" height="199.118" viewBox="0 0 199.118 199.118">
  <g id="LOGO_MS" data-name="LOGO MS" transform="translate(3.897 -130.937)">
    <g id="Groupe_11" data-name="Groupe 11" transform="translate(-3.897 130.937)">
      <g id="Groupe_1" data-name="Groupe 1">
        <path id="Tracé_1" data-name="Tracé 1" d="M195.221,226.57V330.055H-3.9V130.937H195.221v64.356m0,0V226.57" transform="translate(3.897 -130.937)" fill="#003986"/>
      </g>
      <path id="Union_1" data-name="Union 1" d="M85.746,54.364a9.637,9.637,0,0,1-2.371-3.886v7.137H75.689V45.227h-8.17V57.615H59.832V52.442c-1.9,3.548-6.163,5.436-11.025,5.436-4.787,0-8.7-.879-11.858-4.13l4.919-4.919c1.626,1.624,4.481,2.2,6.984,2.2,3.03,0,4.48-1.009,4.48-2.811a2.605,2.605,0,0,0-.615-1.844,3.477,3.477,0,0,0-2.064-.835l-3.778-.527a10.582,10.582,0,0,1-6.281-2.768,8.655,8.655,0,0,1-2.153-6.281,9.392,9.392,0,0,1,7.234-9.331H42.764V18.617H31.232a3.2,3.2,0,0,0,3.522,3.115,4.967,4.967,0,0,0,4.118-1.669L42.5,23.7a9.7,9.7,0,0,1-7.75,3.152c-4.195,0-8.992-1.441-9.456-8.974v8.753H18.809V13.981l-3.745,6.526H10.911L7.165,13.981V26.628H.676V.223H7.054l5.933,11.645L18.921.223H25.3v15.33c.4-5.839,3.973-9.1,8.9-9.1a8.391,8.391,0,0,1,8.565,6.354V6.675H48.7V8.307a6.758,6.758,0,0,1,4.635-1.853A6.056,6.056,0,0,1,58.19,8.567a7.767,7.767,0,0,1,5.637-2.113A6.9,6.9,0,0,1,68.61,8.159a7.112,7.112,0,0,1,2.119,4.412,7.279,7.279,0,0,1,1.849-3.56,9.324,9.324,0,0,1,12.83,0,7.475,7.475,0,0,1,1.966,4.168v-6.5h5.933V8.307a6.917,6.917,0,0,1,4.709-1.853,6.047,6.047,0,0,1,3.662,1h5.275v9.88c.993-1.614,2.924-2.759,5.969-2.759h4.042v-.519c0-1.817-.89-2.484-3-2.484a3.762,3.762,0,0,0-3.188,1.335L106.99,9.123c2.039-2.039,3.893-2.669,7.267-2.669,5.355,0,8.394,2.086,8.752,6.351V.223h6.08V20.285a1.1,1.1,0,0,0,1.225,1.225h2.113v4.828h3.434V38.374h8.17V26.338h7.482V57.615h-7.482V45.227h-8.17V57.615H123.081l-1.448-4.657h-9.621l-1.537,4.657h-8.037l1.445-3.974q-.3.37-.655.723a12.628,12.628,0,0,1-17.482,0Zm5.668-20.075c-.7.924-1.143,1.977-1.143,7.688s.44,6.72,1.143,7.642a4.065,4.065,0,0,0,6.148,0c.7-.923,1.143-1.933,1.143-7.642s-.439-6.764-1.143-7.688a4.149,4.149,0,0,0-6.148,0Zm36.762,15.232V26.567a5.611,5.611,0,0,1-5.13-5.16v5.221h-3.2ZM103.228,29.589c3.294,3.294,3.162,7.687,3.162,12.388,0,1.771.019,3.5-.134,5.139l7.4-20.354a8.927,8.927,0,0,1-1,.052,6.638,6.638,0,0,1-4.783-1.781,5.459,5.459,0,0,1-.927-1.242v2.839h-6.082V10.154L98.09,12.98A2.826,2.826,0,0,0,95.9,11.941a2.45,2.45,0,0,0-2.446,2.745V26.107q.5-.031,1.032-.032A11.47,11.47,0,0,1,103.228,29.589Zm10.937,16.956h5.446L116.975,38.2ZM49.642,32.8c-2.679,0-3.777,1.537-3.777,2.9a2.057,2.057,0,0,0,.615,1.45,3.509,3.509,0,0,0,2.152.921l3.778.528a10.529,10.529,0,0,1,6.149,2.591A6.745,6.745,0,0,1,59.832,42.9V30.38L55.572,34.64a7.221,7.221,0,0,0-5.4-1.846Zm17.876,5.578h8.17V26.338h.07a7.858,7.858,0,0,1-3.181-2.046A7.2,7.2,0,0,1,70.8,21.043v5.585h-3.28ZM83.375,26.338v7.137a9.636,9.636,0,0,1,2.371-3.886A11.356,11.356,0,0,1,90.5,26.628H87.373V20.14a7.427,7.427,0,0,1-1.966,4.151,7.852,7.852,0,0,1-3.18,2.046ZM59.832,29.27V26.338h4.885V14.686a2.464,2.464,0,1,0-4.895,0V26.628H54.777A11.971,11.971,0,0,1,59.832,29.27ZM53.74,26.4V14.686a2.463,2.463,0,1,0-4.894,0V26.1q.5-.029,1.017-.029A21.261,21.261,0,0,1,53.74,26.4Zm63.373-.061V25a6.161,6.161,0,0,1-1.835,1.343Zm-5.155-6.126c0,.89.669,1.669,2,1.669a2.927,2.927,0,0,0,2.41-.742,2.548,2.548,0,0,0,.593-2v-.519h-3.077C112.7,18.617,111.958,19.284,111.958,20.212ZM77.362,12.5c-.779.778-.889,2.188-.889,4.153s.11,3.375.889,4.153a2.672,2.672,0,0,0,3.264,0c.779-.778.89-2.188.89-4.153s-.111-3.375-.89-4.153a2.669,2.669,0,0,0-3.264,0Zm-45.8.52a3.487,3.487,0,0,0-.333,1.556h5.933a3.47,3.47,0,0,0-.334-1.556A2.645,2.645,0,0,0,34.2,11.459,2.646,2.646,0,0,0,31.565,13.018ZM9.39,39.642V43H6.173v-.886a3.23,3.23,0,0,1-2.51,1.006,3.768,3.768,0,0,1-2.651-.986C-.06,41.068,0,39.172,0,37.58s-.061-3.486,1.011-4.554a3.714,3.714,0,0,1,2.631-.988,3.2,3.2,0,0,1,2.429.907V28.652H9.39V35.68a4.561,4.561,0,0,1,4.653-3.642c3.157,0,4.9,2.3,4.9,5.139v1.471H12.425a1.745,1.745,0,0,0,1.923,1.693,2.715,2.715,0,0,0,2.246-.907l1.983,1.975a5.3,5.3,0,0,1-4.229,1.713C12.348,43.122,10.1,42.524,9.39,39.642ZM3.319,37.58c0,1.572.142,2.56,1.376,2.56s1.376-.987,1.376-2.56S5.93,35.02,4.7,35.02,3.319,36.008,3.319,37.58Zm9.289-1.975a1.876,1.876,0,0,0-.183.846h3.238a1.885,1.885,0,0,0-.182-.846,1.444,1.444,0,0,0-1.437-.847A1.442,1.442,0,0,0,12.607,35.605Zm13.825,6.663V43H24.671a3.13,3.13,0,0,1-3.379-3.2V28.652h3.319v10.9a.6.6,0,0,0,.668.666h.1a4.457,4.457,0,0,1-.044-.626c0-1.631,1.112-3.144,3.7-3.144h2.205v-.282c0-.987-.485-1.35-1.639-1.35a2.062,2.062,0,0,0-1.74.724L25.8,33.489a4.833,4.833,0,0,1,3.967-1.452c3.117,0,4.8,1.29,4.8,3.929V43H31.329v-.886A3.014,3.014,0,0,1,28.9,43.1,3.711,3.711,0,0,1,26.432,42.268Zm2.084-2.753c0,.483.364.907,1.092.907a1.6,1.6,0,0,0,1.315-.4,1.379,1.379,0,0,0,.324-1.089v-.281H29.569C28.92,38.649,28.516,39.011,28.516,39.515ZM100.871,4.636V0h6.082V4.636ZM32.2,4.005l1-3.829h5.049L35.867,4.005Z" transform="translate(47.599 38.018)" fill="#fff"/>
      <g id="Groupe_6" data-name="Groupe 6" transform="translate(88.198 98.8)">
        <path id="Tracé_19" data-name="Tracé 19" d="M115.59,267.017v-4.5l-1.334,2.322h-1.479l-1.334-2.322v4.5H109.13v-9.394H111.4l2.113,4.143,2.113-4.143H117.9v9.394Z" transform="translate(-109.13 -257.567)" fill="#fff"/>
        <path id="Tracé_20" data-name="Tracé 20" d="M126.043,267.663v-.581a2.41,2.41,0,0,1-1.652.66,2.191,2.191,0,0,1-1.6-.607,2.6,2.6,0,0,1-.713-2.032v-4.538h2.165v4.247a.878.878,0,1,0,1.744,0v-4.247h2.166v7.1Z" transform="translate(-111.975 -258.213)" fill="#fff"/>
        <path id="Tracé_21" data-name="Tracé 21" d="M133.7,267.719a3.873,3.873,0,0,1-3.091-1.029l1.4-1.4a2.319,2.319,0,0,0,1.732.594c.317,0,.925-.093.925-.463,0-.2-.093-.408-.515-.448l-1.1-.106c-1.229-.118-2.06-.673-2.06-2.057,0-1.57,1.413-2.349,2.826-2.349a3.7,3.7,0,0,1,2.8.871l-1.334,1.333a2.127,2.127,0,0,0-1.506-.423c-.529,0-.7.25-.7.41,0,.079-.027.343.463.395l1.1.106a2.077,2.077,0,0,1,2.14,2.163C136.78,266.993,135.354,267.719,133.7,267.719Z" transform="translate(-113.849 -258.191)" fill="#fff"/>
        <path id="Tracé_22" data-name="Tracé 22" d="M141.27,264.15a1.14,1.14,0,0,0,1.255,1.109,1.771,1.771,0,0,0,1.466-.595l1.295,1.294a3.457,3.457,0,0,1-2.761,1.121c-1.572,0-3.381-.567-3.381-3.628,0-2.321,1.32-3.628,3.183-3.628a3.107,3.107,0,0,1,3.2,3.364v.963Zm1.995-1.992a1.071,1.071,0,0,0-1.876,0,1.243,1.243,0,0,0-.119.555h2.114A1.245,1.245,0,0,0,143.265,262.158Zm-.343-3.206h-1.308l.373-1.4h1.874Z" transform="translate(-115.723 -257.551)" fill="#fff"/>
        <path id="Tracé_23" data-name="Tracé 23" d="M150.258,264.79a1.14,1.14,0,0,0,1.254,1.109,1.769,1.769,0,0,0,1.467-.595l1.295,1.294a3.457,3.457,0,0,1-2.762,1.121c-1.571,0-3.38-.567-3.38-3.629,0-2.321,1.321-3.628,3.183-3.628a3.107,3.107,0,0,1,3.2,3.364v.963Zm2-1.992a1.072,1.072,0,0,0-1.877,0,1.244,1.244,0,0,0-.119.555h2.113A1.242,1.242,0,0,0,152.254,262.8Z" transform="translate(-117.698 -258.191)" fill="#fff"/>
        <path id="Tracé_24" data-name="Tracé 24" d="M157.442,271.672v-3.545h2.3v1.856Z" transform="translate(-119.743 -259.874)" fill="#fff"/>
      </g>
      <g id="Groupe_7" data-name="Groupe 7" transform="translate(87.894 109.434)">
        <path id="Tracé_25" data-name="Tracé 25" d="M112.308,280.729a3.505,3.505,0,0,1-2.616-1.055c-.991-.989-.951-2.308-.951-3.72s-.04-2.731.951-3.721a3.508,3.508,0,0,1,2.616-1.055,3.4,3.4,0,0,1,3.566,3.061h-2.351a1.165,1.165,0,0,0-1.2-1,1.125,1.125,0,0,0-.911.4c-.211.278-.357.608-.357,2.322s.145,2.045.357,2.321a1.121,1.121,0,0,0,.911.4,1.165,1.165,0,0,0,1.2-1h2.351A3.4,3.4,0,0,1,112.308,280.729Z" transform="translate(-108.741 -271.179)" fill="#fff"/>
        <path id="Tracé_26" data-name="Tracé 26" d="M120.517,278.448a1.139,1.139,0,0,0,1.254,1.108,1.769,1.769,0,0,0,1.467-.594l1.295,1.293a3.457,3.457,0,0,1-2.762,1.121c-1.572,0-3.38-.567-3.38-3.627,0-2.322,1.32-3.627,3.183-3.627a3.106,3.106,0,0,1,3.2,3.363v.963Zm1.994-1.992a1.07,1.07,0,0,0-1.875,0,1.23,1.23,0,0,0-.119.554h2.113A1.232,1.232,0,0,0,122.511,276.456Z" transform="translate(-110.861 -271.825)" fill="#fff"/>
        <path id="Tracé_27" data-name="Tracé 27" d="M131.694,281.3V277.05a.877.877,0,1,0-1.742,0V281.3h-2.167v-7.1H129.9v.581a2.412,2.412,0,0,1,1.652-.659,2.195,2.195,0,0,1,1.6.606,2.6,2.6,0,0,1,.713,2.032V281.3Z" transform="translate(-112.924 -271.825)" fill="#fff"/>
        <path id="Tracé_28" data-name="Tracé 28" d="M139.339,280.826a2.045,2.045,0,0,1-2.206-2.1v-3.06h-.647V274h.647v-2.032H139.3V274h1.123v1.662H139.3v2.9a.391.391,0,0,0,.435.435h.687v1.82Z" transform="translate(-114.836 -271.353)" fill="#fff"/>
        <path id="Tracé_29" data-name="Tracé 29" d="M146.6,276.443a1.008,1.008,0,0,0-.78-.369.872.872,0,0,0-.872.976V281.3h-2.166v-7.1H144.9v.581a2.467,2.467,0,0,1,1.678-.659,2.106,2.106,0,0,1,1.664.659Z" transform="translate(-116.219 -271.825)" fill="#fff"/>
      </g>
      <path id="Tracé_30" data-name="Tracé 30" d="M151.565,278.448a1.139,1.139,0,0,0,1.255,1.108,1.768,1.768,0,0,0,1.466-.594l1.295,1.293a3.458,3.458,0,0,1-2.761,1.121c-1.572,0-3.382-.567-3.382-3.627,0-2.322,1.32-3.627,3.184-3.627a3.106,3.106,0,0,1,3.2,3.363v.963Zm1.994-1.992a1.071,1.071,0,0,0-1.876,0,1.231,1.231,0,0,0-.119.554h2.114A1.232,1.232,0,0,0,153.56,276.456Z" transform="translate(-29.787 -162.391)" fill="#fff"/>
      <g id="Groupe_8" data-name="Groupe 8" transform="translate(87.815 120.171)">
        <path id="Tracé_31" data-name="Tracé 31" d="M112.669,294.332v-.581a2.1,2.1,0,0,1-1.638.66,2.456,2.456,0,0,1-1.731-.646c-.7-.7-.66-1.94-.66-2.982s-.04-2.283.66-2.982a2.423,2.423,0,0,1,1.717-.647,2.086,2.086,0,0,1,1.585.594v-2.81h2.166v9.394Zm-.964-5.224c-.806,0-.9.646-.9,1.675s.092,1.675.9,1.675.9-.646.9-1.675S112.51,289.107,111.7,289.107Z" transform="translate(-108.639 -284.938)" fill="#fff"/>
        <path id="Tracé_32" data-name="Tracé 32" d="M119.839,292.106a1.14,1.14,0,0,0,1.255,1.108,1.769,1.769,0,0,0,1.466-.594l1.295,1.293a3.456,3.456,0,0,1-2.761,1.121c-1.572,0-3.382-.567-3.382-3.628,0-2.322,1.322-3.628,3.184-3.628a3.107,3.107,0,0,1,3.2,3.365v.963Zm2-1.992a1.072,1.072,0,0,0-1.877,0,1.237,1.237,0,0,0-.119.553h2.113A1.236,1.236,0,0,0,121.834,290.114Z" transform="translate(-110.632 -285.562)" fill="#fff"/>
      </g>
      <g id="Groupe_9" data-name="Groupe 9" transform="translate(104.832 120.091)">
        <path id="Tracé_33" data-name="Tracé 33" d="M134.477,294.332v-.581a2.1,2.1,0,0,1-1.638.66,2.454,2.454,0,0,1-1.731-.646c-.7-.7-.66-1.94-.66-2.982s-.04-2.283.66-2.982a2.42,2.42,0,0,1,1.717-.647,2.085,2.085,0,0,1,1.585.594v-2.81h2.167v9.394Zm-.964-5.224c-.805,0-.9.646-.9,1.675s.092,1.675.9,1.675.9-.646.9-1.675S134.318,289.107,133.512,289.107Z" transform="translate(-130.447 -284.858)" fill="#fff"/>
        <path id="Tracé_34" data-name="Tracé 34" d="M144.955,294.124a3.322,3.322,0,0,1-4.57,0,5.125,5.125,0,0,1,0-5.434,3.32,3.32,0,0,1,4.57,0,5.125,5.125,0,0,1,0,5.434Zm-1.7-4.2a.954.954,0,0,0-1.162,0c-.278.278-.318.778-.318,1.478s.04,1.2.318,1.477a.951.951,0,0,0,1.162,0c.278-.276.318-.778.318-1.477S143.529,290.206,143.252,289.929Z" transform="translate(-132.459 -285.482)" fill="#fff"/>
        <path id="Tracé_35" data-name="Tracé 35" d="M151.553,295.034c-1.228,0-3.2-.527-3.2-3.628s1.969-3.628,3.2-3.628a3.162,3.162,0,0,1,2.339.911l-1.467,1.463a1.151,1.151,0,0,0-.872-.421.881.881,0,0,0-.673.276,2.92,2.92,0,0,0,0,2.8.876.876,0,0,0,.673.278,1.15,1.15,0,0,0,.872-.423l1.467,1.465A3.165,3.165,0,0,1,151.553,295.034Z" transform="translate(-134.382 -285.482)" fill="#fff"/>
        <path id="Tracé_36" data-name="Tracé 36" d="M160.208,294.978V294.4a2.4,2.4,0,0,1-1.651.66,2.192,2.192,0,0,1-1.6-.607,2.6,2.6,0,0,1-.713-2.032v-4.538h2.166v4.249a.877.877,0,1,0,1.743,0v-4.249h2.166v7.1Z" transform="translate(-136.115 -285.504)" fill="#fff"/>
        <path id="Tracé_37" data-name="Tracé 37" d="M173.477,294.955v-4.249a.877.877,0,1,0-1.743,0v4.249h-2.166v-4.249a.878.878,0,1,0-1.744,0v4.249h-2.166v-7.1h2.114v.581a2.407,2.407,0,0,1,1.65-.66,2.164,2.164,0,0,1,1.732.751,2.772,2.772,0,0,1,2.007-.751,2.461,2.461,0,0,1,1.7.607,2.665,2.665,0,0,1,.78,2.032v4.538Z" transform="translate(-138.182 -285.482)" fill="#fff"/>
        <path id="Tracé_38" data-name="Tracé 38" d="M181.715,292.106a1.14,1.14,0,0,0,1.255,1.108,1.77,1.77,0,0,0,1.466-.594l1.294,1.293a3.454,3.454,0,0,1-2.76,1.121c-1.572,0-3.381-.567-3.381-3.628,0-2.322,1.321-3.628,3.183-3.628a3.107,3.107,0,0,1,3.2,3.365v.963Zm1.994-1.992a1.071,1.071,0,0,0-1.876,0,1.237,1.237,0,0,0-.119.553h2.113A1.227,1.227,0,0,0,183.71,290.114Z" transform="translate(-141.243 -285.482)" fill="#fff"/>
        <path id="Tracé_39" data-name="Tracé 39" d="M192.894,294.955v-4.249a.878.878,0,1,0-1.744,0v4.249h-2.166v-7.1H191.1v.581a2.41,2.41,0,0,1,1.651-.66,2.194,2.194,0,0,1,1.6.607,2.6,2.6,0,0,1,.714,2.032v4.538Z" transform="translate(-143.307 -285.482)" fill="#fff"/>
        <path id="Tracé_40" data-name="Tracé 40" d="M200.537,294.483a2.046,2.046,0,0,1-2.205-2.1v-3.061h-.647v-1.662h.647V285.63H200.5v2.033h1.122v1.662H200.5v2.9a.391.391,0,0,0,.435.436h.687v1.82Z" transform="translate(-145.218 -285.01)" fill="#fff"/>
        <path id="Tracé_41" data-name="Tracé 41" d="M207.3,294.955v-.581a1.957,1.957,0,0,1-1.585.647,2.37,2.37,0,0,1-1.7-.633,2.316,2.316,0,0,1-.621-1.663c0-1.068.727-2.058,2.418-2.058h1.44v-.184c0-.646-.318-.884-1.071-.884a1.344,1.344,0,0,0-1.136.475l-1.347-1.345a3.152,3.152,0,0,1,2.589-.95c2.035,0,3.131.844,3.131,2.573v4.6Zm-.052-2.85h-1.1c-.423,0-.687.237-.687.566s.238.595.713.595a1.043,1.043,0,0,0,.859-.265.9.9,0,0,0,.211-.712Z" transform="translate(-146.471 -285.482)" fill="#fff"/>
        <path id="Tracé_42" data-name="Tracé 42" d="M214.808,294.483a2.045,2.045,0,0,1-2.206-2.1v-3.061h-.647v-1.662h.647V285.63h2.166v2.033h1.123v1.662h-1.123v2.9a.391.391,0,0,0,.436.436h.687v1.82Z" transform="translate(-148.353 -285.01)" fill="#fff"/>
        <path id="Tracé_43" data-name="Tracé 43" d="M218.251,286.486v-1.65h2.166v1.65Zm0,7.824v-6.821h2.166v6.821Z" transform="translate(-149.736 -284.836)" fill="#fff"/>
        <path id="Tracé_44" data-name="Tracé 44" d="M227.68,294.124a3.322,3.322,0,0,1-4.57,0,5.125,5.125,0,0,1,0-5.434,3.32,3.32,0,0,1,4.57,0,5.125,5.125,0,0,1,0,5.434Zm-1.7-4.2a.955.955,0,0,0-1.163,0c-.278.278-.317.778-.317,1.478s.039,1.2.317,1.477a.952.952,0,0,0,1.163,0c.276-.276.317-.778.317-1.477S226.253,290.206,225.977,289.929Z" transform="translate(-150.632 -285.482)" fill="#fff"/>
        <path id="Tracé_45" data-name="Tracé 45" d="M235.4,294.955v-4.249a.877.877,0,1,0-1.743,0v4.249h-2.167v-7.1H233.6v.581a2.41,2.41,0,0,1,1.652-.66,2.195,2.195,0,0,1,1.6.607,2.6,2.6,0,0,1,.714,2.032v4.538Z" transform="translate(-152.644 -285.482)" fill="#fff"/>
      </g>
      <g id="Groupe_10" data-name="Groupe 10" transform="translate(111.591 133.044)">
        <path id="Tracé_46" data-name="Tracé 46" d="M139.109,301.436m0,1.78" transform="translate(-139.109 -301.436)" fill="#fff"/>
      </g>
      <rect id="Rectangle_1" data-name="Rectangle 1" width="2.993" height="3.657" transform="translate(162.485 62.538)" fill="#fff"/>
    </g>
  </g>
</svg>
